<svg xmlns="http://www.w3.org/2000/svg" xmlns:xlink="http://www.w3.org/1999/xlink" width="500" zoomAndPan="magnify" viewBox="0 0 375 374.999991" height="500" preserveAspectRatio="xMidYMid meet" version="1.0"><defs><g/><clipPath id="12ff49f1c5"><path d="M 231.890625 97.683594 L 278.390625 97.683594 L 278.390625 144.183594 L 231.890625 144.183594 Z M 231.890625 97.683594 " clip-rule="nonzero"/></clipPath><clipPath id="dfe0c3fcd1"><path d="M 231.890625 112 L 264 112 L 264 144.183594 L 231.890625 144.183594 Z M 231.890625 112 " clip-rule="nonzero"/></clipPath><clipPath id="36dcc30331"><path d="M 231.890625 130 L 246 130 L 246 144.183594 L 231.890625 144.183594 Z M 231.890625 130 " clip-rule="nonzero"/></clipPath></defs><g fill="#ffffff" fill-opacity="1"><g transform="translate(160.029646, 168.008999)"><g><path d="M 84.515625 22.546875 C 83.546875 22.703125 82.59375 22.816406 81.65625 22.890625 C 80.726562 22.960938 79.78125 23 78.8125 23 C 73.007812 23 67.765625 21.695312 63.078125 19.09375 C 58.390625 16.488281 54.050781 13.082031 50.0625 8.875 C 46.082031 4.664062 42.414062 -0.078125 39.0625 -5.359375 C 35.71875 -10.640625 32.484375 -15.976562 29.359375 -21.375 C 26.234375 -26.769531 23.160156 -31.976562 20.140625 -37 C 17.128906 -42.03125 13.988281 -46.367188 10.71875 -50.015625 L 10.71875 -8.15625 C 10.71875 -6.070312 11.289062 -4.335938 12.4375 -2.953125 C 13.59375 -1.578125 15.140625 -0.59375 17.078125 0 L 3.796875 0 C 5.734375 -0.59375 7.238281 -1.597656 8.3125 -3.015625 C 9.394531 -4.429688 9.9375 -6.144531 9.9375 -8.15625 L 9.9375 -50.90625 C 6.738281 -54.476562 3.035156 -57.398438 -1.171875 -59.671875 C -5.378906 -61.941406 -9.9375 -63.078125 -14.84375 -63.078125 C -18.414062 -63.078125 -21.878906 -62.628906 -25.234375 -61.734375 L -25.5625 -62.625 C -23.625 -63.226562 -21.6875 -63.640625 -19.75 -63.859375 C -17.820312 -64.078125 -15.890625 -64.1875 -13.953125 -64.1875 C -8.742188 -64.1875 -3.945312 -63.3125 0.4375 -61.5625 C 4.832031 -59.820312 8.890625 -57.460938 12.609375 -54.484375 C 16.335938 -51.503906 19.78125 -48.078125 22.9375 -44.203125 C 26.101562 -40.335938 29.023438 -36.265625 31.703125 -31.984375 C 34.378906 -27.703125 36.867188 -23.363281 39.171875 -18.96875 C 41.484375 -14.582031 43.679688 -10.414062 45.765625 -6.46875 L 45.765625 -46.671875 C 45.765625 -50.835938 43.679688 -53.515625 39.515625 -54.703125 L 52.921875 -54.703125 C 50.984375 -54.109375 49.472656 -53.125 48.390625 -51.75 C 47.316406 -50.375 46.78125 -48.679688 46.78125 -46.671875 L 46.78125 -4.90625 C 48.414062 -1.9375 50.273438 1.109375 52.359375 4.234375 C 54.441406 7.367188 56.765625 10.238281 59.328125 12.84375 C 61.898438 15.445312 64.75 17.582031 67.875 19.25 C 71 20.925781 74.460938 21.765625 78.265625 21.765625 L 80.046875 21.765625 C 80.785156 21.765625 81.507812 21.765625 82.21875 21.765625 C 82.925781 21.765625 83.613281 21.691406 84.28125 21.546875 Z M 84.515625 22.546875 "/></g></g></g><g fill="#ffffff" fill-opacity="1"><g transform="translate(133.919112, 173.020311)"><g><path d="M 2.671875 17.75 C 1.410156 18.5625 0.0351562 19.300781 -1.453125 19.96875 C -2.941406 20.644531 -4.429688 21.171875 -5.921875 21.546875 L -5.921875 20.984375 C -3.015625 20.085938 -0.707031 18.484375 1 16.171875 C 2.71875 13.867188 4.054688 11.265625 5.015625 8.359375 C 5.984375 5.460938 6.617188 2.453125 6.921875 -0.671875 C 7.222656 -3.796875 7.375 -6.625 7.375 -9.15625 L 7.375 -46.21875 C 7.375 -47.925781 7.054688 -49.613281 6.421875 -51.28125 C 5.785156 -52.957031 4.5 -54.097656 2.5625 -54.703125 L 23.21875 -54.703125 C 21.28125 -54.097656 19.992188 -52.957031 19.359375 -51.28125 C 18.734375 -49.613281 18.421875 -47.925781 18.421875 -46.21875 L 18.421875 -9.15625 C 18.421875 -3.425781 17.003906 1.742188 14.171875 6.359375 C 11.347656 10.972656 7.515625 14.769531 2.671875 17.75 Z M 2.671875 17.75 "/></g></g></g><g fill="#ffffff" fill-opacity="1"><g transform="translate(119.214555, 234.953481)"><g><path d="M 0.953125 3.390625 C 1.835938 3.390625 2.429688 2.789062 2.734375 1.59375 C 3.035156 0.394531 3.1875 -1.765625 3.1875 -4.890625 L 3.203125 -21.953125 C 3.203125 -22.398438 3.304688 -22.691406 3.515625 -22.828125 C 3.734375 -22.972656 4.140625 -23.046875 4.734375 -23.046875 C 6.179688 -23.046875 6.914062 -22.675781 6.9375 -21.9375 L 7.40625 -12.953125 L 7.40625 -4.953125 C 7.40625 -1.566406 7.195312 0.984375 6.78125 2.703125 C 6.519531 3.703125 6.148438 4.472656 5.671875 5.015625 C 4.648438 6.148438 3.078125 6.71875 0.953125 6.71875 C 0.597656 6.695312 0.351562 6.5625 0.21875 6.3125 C 0.09375 6.0625 0.0234375 5.628906 0.015625 5.015625 C 0.00390625 4.410156 0.0703125 3.988281 0.21875 3.75 C 0.375 3.507812 0.617188 3.390625 0.953125 3.390625 Z M 0.953125 3.390625 "/></g></g></g><g fill="#ffffff" fill-opacity="1"><g transform="translate(127.881188, 234.953481)"><g><path d="M 1.109375 -11.125 C 1.109375 -14.3125 1.359375 -16.753906 1.859375 -18.453125 C 2.359375 -20.148438 3.148438 -21.335938 4.234375 -22.015625 C 5.328125 -22.703125 6.90625 -23.046875 8.96875 -23.046875 C 11.03125 -23.046875 12.601562 -22.703125 13.6875 -22.015625 C 14.78125 -21.335938 15.570312 -20.15625 16.0625 -18.46875 C 16.550781 -16.78125 16.796875 -14.332031 16.796875 -11.125 C 16.796875 -6.75 16.234375 -3.71875 15.109375 -2.03125 C 13.992188 -0.351562 11.945312 0.484375 8.96875 0.484375 C 5.988281 0.484375 3.929688 -0.351562 2.796875 -2.03125 C 1.671875 -3.71875 1.109375 -6.75 1.109375 -11.125 Z M 6.109375 -16.71875 C 5.992188 -15.96875 5.925781 -15.207031 5.90625 -14.4375 C 5.882812 -13.675781 5.875 -12.375 5.875 -10.53125 C 5.875 -8.6875 5.929688 -7.144531 6.046875 -5.90625 C 6.171875 -4.664062 6.332031 -3.847656 6.53125 -3.453125 C 6.738281 -3.066406 7.007812 -2.875 7.34375 -2.875 C 9.101562 -2.875 10.253906 -3.054688 10.796875 -3.421875 C 10.992188 -3.554688 11.1875 -3.785156 11.375 -4.109375 C 11.570312 -4.429688 11.707031 -4.757812 11.78125 -5.09375 C 11.863281 -5.4375 11.9375 -5.9375 12 -6.59375 C 12.082031 -7.457031 12.125 -9.003906 12.125 -11.234375 C 12.125 -13.460938 12.066406 -15.222656 11.953125 -16.515625 C 11.847656 -17.804688 11.6875 -18.6875 11.46875 -19.15625 C 11.257812 -19.625 10.988281 -19.859375 10.65625 -19.859375 C 9.851562 -19.859375 9.207031 -19.820312 8.71875 -19.75 C 8.226562 -19.6875 7.789062 -19.519531 7.40625 -19.25 C 7.03125 -18.976562 6.75 -18.675781 6.5625 -18.34375 C 6.382812 -18.007812 6.234375 -17.46875 6.109375 -16.71875 Z M 6.109375 -16.71875 "/></g></g></g><g fill="#ffffff" fill-opacity="1"><g transform="translate(145.784233, 234.953481)"><g><path d="M 1.34375 -21.9375 C 1.34375 -22.375 1.445312 -22.664062 1.65625 -22.8125 C 1.875 -22.96875 2.28125 -23.046875 2.875 -23.046875 C 4.320312 -23.046875 5.050781 -22.679688 5.0625 -21.953125 L 5.515625 -12.953125 L 5.546875 -3.625 L 11.375 -3.625 C 12.351562 -3.625 12.84375 -3.265625 12.84375 -2.546875 C 12.84375 -1.242188 12.648438 -0.460938 12.265625 -0.203125 C 12.066406 -0.0664062 11.804688 0 11.484375 0 L 1.828125 0 L 1.34375 -0.484375 Z M 1.34375 -21.9375 "/></g></g></g><g fill="#ffffff" fill-opacity="1"><g transform="translate(158.829169, 234.953481)"><g><path d="M 1.34375 -21.9375 C 1.34375 -22.375 1.445312 -22.664062 1.65625 -22.8125 C 1.875 -22.96875 2.28125 -23.046875 2.875 -23.046875 C 4.320312 -23.046875 5.050781 -22.679688 5.0625 -21.953125 L 5.515625 -12.953125 L 5.546875 -3.625 L 11.375 -3.625 C 12.351562 -3.625 12.84375 -3.265625 12.84375 -2.546875 C 12.84375 -1.242188 12.648438 -0.460938 12.265625 -0.203125 C 12.066406 -0.0664062 11.804688 0 11.484375 0 L 1.828125 0 L 1.34375 -0.484375 Z M 1.34375 -21.9375 "/></g></g></g><g fill="#ffffff" fill-opacity="1"><g transform="translate(171.874106, 234.953481)"><g><path d="M 1.109375 -11.125 C 1.109375 -14.3125 1.359375 -16.753906 1.859375 -18.453125 C 2.359375 -20.148438 3.148438 -21.335938 4.234375 -22.015625 C 5.328125 -22.703125 6.90625 -23.046875 8.96875 -23.046875 C 11.03125 -23.046875 12.601562 -22.703125 13.6875 -22.015625 C 14.78125 -21.335938 15.570312 -20.15625 16.0625 -18.46875 C 16.550781 -16.78125 16.796875 -14.332031 16.796875 -11.125 C 16.796875 -6.75 16.234375 -3.71875 15.109375 -2.03125 C 13.992188 -0.351562 11.945312 0.484375 8.96875 0.484375 C 5.988281 0.484375 3.929688 -0.351562 2.796875 -2.03125 C 1.671875 -3.71875 1.109375 -6.75 1.109375 -11.125 Z M 6.109375 -16.71875 C 5.992188 -15.96875 5.925781 -15.207031 5.90625 -14.4375 C 5.882812 -13.675781 5.875 -12.375 5.875 -10.53125 C 5.875 -8.6875 5.929688 -7.144531 6.046875 -5.90625 C 6.171875 -4.664062 6.332031 -3.847656 6.53125 -3.453125 C 6.738281 -3.066406 7.007812 -2.875 7.34375 -2.875 C 9.101562 -2.875 10.253906 -3.054688 10.796875 -3.421875 C 10.992188 -3.554688 11.1875 -3.785156 11.375 -4.109375 C 11.570312 -4.429688 11.707031 -4.757812 11.78125 -5.09375 C 11.863281 -5.4375 11.9375 -5.9375 12 -6.59375 C 12.082031 -7.457031 12.125 -9.003906 12.125 -11.234375 C 12.125 -13.460938 12.066406 -15.222656 11.953125 -16.515625 C 11.847656 -17.804688 11.6875 -18.6875 11.46875 -19.15625 C 11.257812 -19.625 10.988281 -19.859375 10.65625 -19.859375 C 9.851562 -19.859375 9.207031 -19.820312 8.71875 -19.75 C 8.226562 -19.6875 7.789062 -19.519531 7.40625 -19.25 C 7.03125 -18.976562 6.75 -18.675781 6.5625 -18.34375 C 6.382812 -18.007812 6.234375 -17.46875 6.109375 -16.71875 Z M 6.109375 -16.71875 "/></g></g></g><g fill="#ffffff" fill-opacity="1"><g transform="translate(189.777151, 234.953481)"><g><path d="M 1.34375 0 L 1.34375 -22.5625 L 11.703125 -22.5625 C 12.765625 -22.539062 13.296875 -22.25 13.296875 -21.6875 C 13.296875 -20.664062 13.179688 -19.953125 12.953125 -19.546875 C 12.734375 -19.148438 12.265625 -18.953125 11.546875 -18.953125 L 5.1875 -18.953125 L 5.484375 -13.65625 L 11.765625 -13.65625 C 12.578125 -13.65625 12.984375 -13.332031 12.984375 -12.6875 C 12.984375 -11.644531 12.894531 -10.9375 12.71875 -10.5625 C 12.539062 -10.195312 12.160156 -10.015625 11.578125 -10.015625 L 5.546875 -10.015625 L 5.546875 0 C 5.546875 0.125 5.535156 0.203125 5.515625 0.234375 C 5.421875 0.398438 5.035156 0.484375 4.359375 0.484375 C 3.691406 0.484375 3.019531 0.429688 2.34375 0.328125 C 1.675781 0.234375 1.34375 0.125 1.34375 0 Z M 1.34375 0 "/></g></g></g><g fill="#ffffff" fill-opacity="1"><g transform="translate(202.942033, 234.953481)"><g/></g></g><g fill="#ffffff" fill-opacity="1"><g transform="translate(210.91893, 234.953481)"><g><path d="M 1.34375 -0.71875 L 1.34375 -21.9375 C 1.34375 -22.675781 2.066406 -23.046875 3.515625 -23.046875 C 3.804688 -23.046875 4.035156 -23.035156 4.203125 -23.015625 C 4.378906 -22.992188 4.597656 -22.894531 4.859375 -22.71875 C 5.117188 -22.550781 5.347656 -22.304688 5.546875 -21.984375 L 10.921875 -9.390625 L 10.734375 -21.953125 C 10.734375 -22.679688 11.457031 -23.046875 12.90625 -23.046875 C 13.5 -23.046875 13.90625 -22.972656 14.125 -22.828125 C 14.34375 -22.691406 14.460938 -22.398438 14.484375 -21.953125 L 14.96875 -12.9375 L 14.96875 -0.625 C 14.96875 -0.289062 14.957031 -0.0625 14.9375 0.0625 C 14.851562 0.34375 14.460938 0.484375 13.765625 0.484375 C 12.460938 0.484375 11.6875 0.113281 11.4375 -0.625 L 5.515625 -13.078125 L 5.546875 -0.65625 C 5.546875 -0.300781 5.535156 -0.0625 5.515625 0.0625 C 5.441406 0.34375 5.050781 0.484375 4.34375 0.484375 C 2.34375 0.484375 1.34375 0.0820312 1.34375 -0.71875 Z M 1.34375 -0.71875 "/></g></g></g><g fill="#ffffff" fill-opacity="1"><g transform="translate(227.202601, 234.953481)"><g><path d="M 11.34375 -13.65625 C 12.144531 -13.65625 12.546875 -13.289062 12.546875 -12.5625 C 12.546875 -11.582031 12.484375 -10.910156 12.359375 -10.546875 C 12.242188 -10.191406 11.9375 -10.015625 11.4375 -10.015625 L 5.546875 -10.015625 L 5.546875 -3.625 L 12.484375 -3.625 C 12.960938 -3.601562 13.289062 -3.507812 13.46875 -3.34375 C 13.644531 -3.175781 13.734375 -2.921875 13.734375 -2.578125 C 13.734375 -1.597656 13.644531 -0.921875 13.46875 -0.546875 C 13.289062 -0.179688 12.929688 0 12.390625 0 L 1.828125 0 L 1.34375 -0.484375 L 1.34375 -22.5625 L 12 -22.5625 C 12.863281 -22.539062 13.296875 -22.21875 13.296875 -21.59375 C 13.273438 -21.0625 13.242188 -20.640625 13.203125 -20.328125 C 13.160156 -20.015625 13.035156 -19.707031 12.828125 -19.40625 C 12.617188 -19.101562 12.3125 -18.953125 11.90625 -18.953125 L 5.21875 -18.953125 L 5.546875 -13.65625 Z M 11.34375 -13.65625 "/></g></g></g><g fill="#ffffff" fill-opacity="1"><g transform="translate(241.686975, 234.953481)"><g><path d="M 5.15625 -0.625 L 5.15625 -18.953125 L 1.40625 -18.953125 C 0.925781 -18.972656 0.617188 -19.101562 0.484375 -19.34375 C 0.296875 -19.625 0.203125 -20.125 0.203125 -20.84375 C 0.203125 -21.988281 0.546875 -22.5625 1.234375 -22.5625 L 12.15625 -22.5625 C 13.3125 -22.5625 13.890625 -22.25 13.890625 -21.625 C 13.890625 -19.84375 13.410156 -18.953125 12.453125 -18.953125 L 9.09375 -18.984375 L 9.359375 -12.90625 L 9.390625 -0.6875 C 9.390625 -0.3125 9.378906 -0.0625 9.359375 0.0625 C 9.273438 0.34375 8.882812 0.484375 8.1875 0.484375 C 6.164062 0.484375 5.15625 0.113281 5.15625 -0.625 Z M 5.15625 -0.625 "/></g></g></g><g clip-path="url(#12ff49f1c5)"><path fill="#ffffff" d="M 231.890625 97.683594 L 231.890625 104.925781 C 253.554688 104.925781 271.113281 122.488281 271.113281 144.148438 L 278.355469 144.148438 C 278.355469 118.484375 257.558594 97.683594 231.890625 97.683594 Z M 231.890625 97.683594 " fill-opacity="1" fill-rule="nonzero"/></g><g clip-path="url(#dfe0c3fcd1)"><path fill="#ffffff" d="M 231.890625 112.167969 L 231.890625 119.410156 C 245.558594 119.410156 256.632812 130.492188 256.632812 144.148438 L 263.871094 144.148438 C 263.871094 126.488281 249.550781 112.167969 231.890625 112.167969 Z M 231.890625 112.167969 " fill-opacity="1" fill-rule="nonzero"/></g><g clip-path="url(#36dcc30331)"><path fill="#ffffff" d="M 238.835938 130.273438 C 234.996094 130.273438 231.890625 133.378906 231.890625 137.207031 C 231.890625 141.046875 234.996094 144.148438 238.835938 144.148438 C 242.664062 144.148438 245.777344 141.046875 245.777344 137.207031 C 245.769531 133.378906 242.664062 130.273438 238.835938 130.273438 Z M 238.835938 130.273438 " fill-opacity="1" fill-rule="nonzero"/></g></svg>